<svg width="235" height="70" viewBox="0 0 235 70" fill="none" xmlns="http://www.w3.org/2000/svg">
  <path
    d="M2.10173 23.3403L12.4865 5.1597C13.209 3.89489 14.2481 2.84459 15.4995 2.11441C16.7508 1.38422 18.1703 0.999874 19.6152 1H40.3848C41.8297 0.999874 43.2492 1.38422 44.5005 2.11441C45.7519 2.84459 46.791 3.89489 47.5135 5.1597L53.2288 15.1656L38.0314 42.2257C37.7755 42.6738 37.7061 43.2064 37.8387 43.7062C37.9712 44.206 38.2947 44.6321 38.7381 44.8908C39.1814 45.1495 39.7083 45.2196 40.2027 45.0856C40.6972 44.9517 41.1188 44.6247 41.3747 44.1766L55.4577 19.0673L57.8983 23.3403C58.62 24.6052 59 26.0398 59 27.5C59 28.9602 58.62 30.3948 57.8983 31.6597L47.5135 49.8403C46.791 51.1051 45.7519 52.1554 44.5005 52.8856C43.2492 53.6158 41.8297 54.0001 40.3848 54H19.9078L34.5511 29.3187C35.1084 28.0793 35.1825 26.6729 34.7586 25.3807C34.3347 24.0884 33.444 23.0054 32.2645 22.3481C31.0849 21.6908 29.7035 21.5075 28.3961 21.835C27.0887 22.1624 25.9517 22.9764 25.2123 24.1143L11.2227 47.6314L7.41243 40.9608L23.9733 12.3275C24.0845 12.1324 24.1566 11.9172 24.1855 11.694C24.2144 11.4708 24.1995 11.244 24.1417 11.0266C24.0839 10.8093 23.9843 10.6055 23.8486 10.427C23.7129 10.2486 23.5437 10.0989 23.3507 9.98646C23.1578 9.87407 22.9448 9.80119 22.724 9.77199C22.5032 9.74279 22.2788 9.75784 22.0638 9.81628C21.8487 9.87471 21.6471 9.97539 21.4706 10.1126C21.294 10.2497 21.1459 10.4207 21.0347 10.6158L5.46995 37.5311L2.10173 31.6597C1.37995 30.3948 1 28.9602 1 27.5C1 26.0398 1.37995 24.6052 2.10173 23.3403ZM36.2819 17.9912C36.8805 18.3252 37.5385 18.5359 38.2181 18.6113C38.8977 18.6867 39.5853 18.6251 40.2412 18.4303C40.8972 18.2354 41.5084 17.9111 42.0395 17.476C42.5707 17.041 43.0113 16.5038 43.3359 15.8956L43.4853 15.6187C43.8359 15.0157 44.0633 14.3477 44.154 13.6542C44.2447 12.9608 44.1968 12.256 44.0132 11.5816C43.8296 10.9072 43.514 10.2769 43.0851 9.72794C42.6562 9.17901 42.1228 8.72262 41.5163 8.38579C40.9098 8.04896 40.2426 7.83853 39.5542 7.76696C38.8658 7.6954 38.1702 7.76414 37.5086 7.96913C36.847 8.17413 36.2328 8.5112 35.7023 8.96039C35.1719 9.40959 34.736 9.96179 34.4204 10.5843L34.271 10.8612C33.9381 11.4624 33.7261 12.1242 33.647 12.8085C33.568 13.4928 33.6235 14.1861 33.8104 14.8487C33.9972 15.5112 34.3118 16.1299 34.7359 16.6692C35.1601 17.2085 35.6855 17.6578 36.2819 17.9912Z"
    fill="#042866"/>
  <path
    d="M75 6.12721C75 1.86903 77.1916 0 82.1896 0C87.1877 0 89.3635 1.86903 89.3635 6.12721C89.3635 10.3854 87.1877 12.1894 82.1896 12.1894C77.1916 12.1894 75 10.3204 75 6.12721Z"
    fill="#042866"/>
  <path d="M88.3374 16.5283H76.0078V53.9092H88.3374V16.5283Z" fill="#042866"/>
  <path
    d="M132.012 29.0119V53.911H119.683V32.4574C119.683 27.1592 117.586 25.4363 114.543 25.4363C110.979 25.4363 108.015 27.9068 108.015 34.099V53.911H95.6543V16.53H106.691L107.054 23.7785C108.058 21.2841 109.791 19.1737 112.011 17.7408C114.232 16.3079 116.831 15.6233 119.446 15.7823C126.935 15.7823 132.012 20.333 132.012 29.0119Z"
    fill="#042866"/>
  <path
    d="M138.225 6.12721C138.225 1.86903 140.4 0 145.398 0C150.396 0 152.588 1.86903 152.588 6.12721C152.588 10.3854 150.412 12.1894 145.398 12.1894C140.385 12.1894 138.225 10.3204 138.225 6.12721Z"
    fill="#042866"/>
  <path d="M151.517 16.5283H139.188V53.9092H151.517V16.5283Z" fill="#042866"/>
  <path fill-rule="evenodd" clip-rule="evenodd"
        d="M194.985 56.8352C194.985 65.5141 186.849 69.9999 174.598 69.9999C161.465 69.9999 156.025 66.5544 156.025 61.1747C156.025 58.1193 157.98 55.2751 162.695 54.1536C159.541 52.7234 157.192 50.2529 157.192 46.3686C157.256 44.6202 157.859 42.9382 158.914 41.5674C159.969 40.1965 161.42 39.2082 163.057 38.7462C161.23 37.7996 159.705 36.3308 158.665 34.5151C157.625 32.6996 157.114 30.6139 157.192 28.507C157.192 20.3808 163.641 15.7975 174.882 15.7975C177.318 15.7902 179.749 16.0407 182.135 16.5451C183.081 10.7754 186.487 5.91589 193.597 6.51725L194.985 14.9686C190.412 14.3022 187.574 15.8625 186.487 18.2191C188.366 19.1428 189.944 20.6106 191.027 22.4432C192.111 24.2761 192.653 26.3942 192.588 28.5394C192.588 36.6659 186.124 41.1677 174.882 41.1677C172.549 41.1924 170.219 40.969 167.929 40.5015C166.258 40.9403 165.596 41.7691 165.596 43.1181C165.596 44.7433 166.983 45.6534 169.38 45.6534H181.772C190.255 45.6048 194.985 49.3429 194.985 56.8352ZM185.257 58.1188C185.257 56.6235 184.169 55.7134 180.826 55.7134H170.893C166.904 55.7134 165.391 56.5423 165.391 58.33C165.391 60.5078 168.433 61.7757 175.465 61.7757C182.198 61.7106 185.32 60.1827 185.32 58.1026L185.257 58.1188ZM171.161 32.2308C170.162 31.2556 169.564 29.923 169.49 28.5072C169.564 27.0914 170.162 25.7588 171.161 24.7836C172.16 23.8086 173.483 23.2651 174.858 23.2651C176.234 23.2651 177.557 23.8086 178.556 24.7836C179.554 25.7588 180.152 27.0914 180.227 28.5072C180.152 29.923 179.554 31.2556 178.556 32.2308C177.557 33.2058 176.234 33.7492 174.858 33.7492C173.483 33.7492 172.16 33.2058 171.161 32.2308Z"
        fill="#042866"/>
  <path fill-rule="evenodd" clip-rule="evenodd"
        d="M215.86 54.7231C227.968 54.7231 235 47.4744 235 35.2199C235 22.9492 227.984 15.7168 215.86 15.7168C203.735 15.7168 196.703 22.9004 196.703 35.2199C196.703 47.5394 203.751 54.7231 215.86 54.7231ZM215.859 45.6054C211.287 45.6054 209.032 42.5501 209.032 35.2201C209.032 27.8901 211.303 24.8184 215.859 24.8184C220.416 24.8184 222.671 27.8901 222.671 35.2201C222.671 42.5501 220.432 45.6054 215.859 45.6054Z"
        fill="#042866"/>
</svg>
